<svg width="274" height="111" viewBox="0 0 274 111" fill="none" xmlns="http://www.w3.org/2000/svg">
<rect x="84" y="80" width="188" height="1" fill="white"/>
<path d="M87.078 98C86.682 98 86.316 97.904 85.98 97.712C85.656 97.52 85.398 97.262 85.206 96.938C85.014 96.602 84.918 96.236 84.918 95.84V95.336H86.376V95.84C86.376 96.032 86.442 96.2 86.574 96.344C86.718 96.476 86.886 96.542 87.078 96.542H95.718C95.91 96.542 96.072 96.476 96.204 96.344C96.348 96.2 96.42 96.032 96.42 95.84V92.942C96.42 92.75 96.348 92.588 96.204 92.456C96.072 92.324 95.91 92.258 95.718 92.258H87.078C86.682 92.258 86.316 92.162 85.98 91.97C85.656 91.766 85.398 91.502 85.206 91.178C85.014 90.854 84.918 90.494 84.918 90.098V87.2C84.918 86.804 85.014 86.444 85.206 86.12C85.398 85.784 85.656 85.52 85.98 85.328C86.316 85.136 86.682 85.04 87.078 85.04H95.718C96.114 85.04 96.474 85.136 96.798 85.328C97.134 85.52 97.398 85.784 97.59 86.12C97.782 86.444 97.878 86.804 97.878 87.2V87.704H96.42V87.2C96.42 87.008 96.348 86.846 96.204 86.714C96.072 86.57 95.91 86.498 95.718 86.498H87.078C86.886 86.498 86.718 86.57 86.574 86.714C86.442 86.846 86.376 87.008 86.376 87.2V90.098C86.376 90.29 86.442 90.452 86.574 90.584C86.718 90.716 86.886 90.782 87.078 90.782H95.718C96.114 90.782 96.474 90.884 96.798 91.088C97.134 91.28 97.398 91.538 97.59 91.862C97.782 92.186 97.878 92.546 97.878 92.942V95.84C97.878 96.236 97.782 96.602 97.59 96.938C97.398 97.262 97.134 97.52 96.798 97.712C96.474 97.904 96.114 98 95.718 98H87.078ZM110.393 98C109.997 98 109.631 97.904 109.295 97.712C108.971 97.52 108.713 97.262 108.521 96.938C108.329 96.602 108.233 96.236 108.233 95.84V87.2C108.233 86.804 108.329 86.444 108.521 86.12C108.713 85.784 108.971 85.52 109.295 85.328C109.631 85.136 109.997 85.04 110.393 85.04H119.033C119.429 85.04 119.789 85.136 120.113 85.328C120.449 85.52 120.713 85.784 120.905 86.12C121.097 86.444 121.193 86.804 121.193 87.2V95.84C121.193 96.236 121.097 96.602 120.905 96.938C120.713 97.262 120.449 97.52 120.113 97.712C119.789 97.904 119.429 98 119.033 98H110.393ZM110.393 96.542H119.033C119.225 96.542 119.387 96.476 119.519 96.344C119.663 96.2 119.735 96.032 119.735 95.84V87.2C119.735 87.008 119.663 86.846 119.519 86.714C119.387 86.57 119.225 86.498 119.033 86.498H110.393C110.201 86.498 110.033 86.57 109.889 86.714C109.757 86.846 109.691 87.008 109.691 87.2V95.84C109.691 96.032 109.757 96.2 109.889 96.344C110.033 96.476 110.201 96.542 110.393 96.542ZM131.653 98V85.022H133.111V96.542H144.613V98H131.653ZM156.246 98C155.85 98 155.484 97.904 155.148 97.712C154.824 97.52 154.566 97.262 154.374 96.938C154.182 96.602 154.086 96.236 154.086 95.84V85.04H155.544V95.84C155.544 96.032 155.61 96.2 155.742 96.344C155.886 96.476 156.054 96.542 156.246 96.542H164.886C165.078 96.542 165.24 96.476 165.372 96.344C165.516 96.2 165.588 96.032 165.588 95.84V85.04H167.046V95.84C167.046 96.236 166.95 96.602 166.758 96.938C166.566 97.262 166.302 97.52 165.966 97.712C165.642 97.904 165.282 98 164.886 98H156.246ZM182.601 98V86.498H176.841V85.04H189.801V86.498H184.059V98H182.601ZM199.787 98V85.04H201.263V98H199.787ZM214.04 98C213.644 98 213.278 97.904 212.942 97.712C212.618 97.52 212.36 97.262 212.168 96.938C211.976 96.602 211.88 96.236 211.88 95.84V87.2C211.88 86.804 211.976 86.444 212.168 86.12C212.36 85.784 212.618 85.52 212.942 85.328C213.278 85.136 213.644 85.04 214.04 85.04H222.68C223.076 85.04 223.436 85.136 223.76 85.328C224.096 85.52 224.36 85.784 224.552 86.12C224.744 86.444 224.84 86.804 224.84 87.2V95.84C224.84 96.236 224.744 96.602 224.552 96.938C224.36 97.262 224.096 97.52 223.76 97.712C223.436 97.904 223.076 98 222.68 98H214.04ZM214.04 96.542H222.68C222.872 96.542 223.034 96.476 223.166 96.344C223.31 96.2 223.382 96.032 223.382 95.84V87.2C223.382 87.008 223.31 86.846 223.166 86.714C223.034 86.57 222.872 86.498 222.68 86.498H214.04C213.848 86.498 213.68 86.57 213.536 86.714C213.404 86.846 213.338 87.008 213.338 87.2V95.84C213.338 96.032 213.404 96.2 213.536 96.344C213.68 96.476 213.848 96.542 214.04 96.542ZM235.283 98V85.04H237.281L246.785 96.344V85.04H248.243V98H246.245L236.741 86.696V98H235.283ZM260.789 98C260.393 98 260.027 97.904 259.691 97.712C259.367 97.52 259.109 97.262 258.917 96.938C258.725 96.602 258.629 96.236 258.629 95.84V95.336H260.087V95.84C260.087 96.032 260.153 96.2 260.285 96.344C260.429 96.476 260.597 96.542 260.789 96.542H269.429C269.621 96.542 269.783 96.476 269.915 96.344C270.059 96.2 270.131 96.032 270.131 95.84V92.942C270.131 92.75 270.059 92.588 269.915 92.456C269.783 92.324 269.621 92.258 269.429 92.258H260.789C260.393 92.258 260.027 92.162 259.691 91.97C259.367 91.766 259.109 91.502 258.917 91.178C258.725 90.854 258.629 90.494 258.629 90.098V87.2C258.629 86.804 258.725 86.444 258.917 86.12C259.109 85.784 259.367 85.52 259.691 85.328C260.027 85.136 260.393 85.04 260.789 85.04H269.429C269.825 85.04 270.185 85.136 270.509 85.328C270.845 85.52 271.109 85.784 271.301 86.12C271.493 86.444 271.589 86.804 271.589 87.2V87.704H270.131V87.2C270.131 87.008 270.059 86.846 269.915 86.714C269.783 86.57 269.621 86.498 269.429 86.498H260.789C260.597 86.498 260.429 86.57 260.285 86.714C260.153 86.846 260.087 87.008 260.087 87.2V90.098C260.087 90.29 260.153 90.452 260.285 90.584C260.429 90.716 260.597 90.782 260.789 90.782H269.429C269.825 90.782 270.185 90.884 270.509 91.088C270.845 91.28 271.109 91.538 271.301 91.862C271.493 92.186 271.589 92.546 271.589 92.942V95.84C271.589 96.236 271.493 96.602 271.301 96.938C271.109 97.262 270.845 97.52 270.509 97.712C270.185 97.904 269.825 98 269.429 98H260.789Z" fill="white"/>
<rect x="84" y="102" width="188" height="1" fill="white"/>
<path d="M101.84 74V38.78H84.2V30.8H127.4V38.78H109.82V74H101.84ZM132.007 74V30.8H171.787V38.78H139.987V48.38H165.547V56.42H139.987V66.02H171.787V74H132.007ZM186.165 74C184.645 74 183.245 73.62 181.965 72.86C180.725 72.1 179.725 71.1 178.965 69.86C178.205 68.58 177.825 67.18 177.825 65.66V39.14C177.825 37.62 178.205 36.24 178.965 35C179.725 33.72 180.725 32.7 181.965 31.94C183.245 31.18 184.645 30.8 186.165 30.8H220.905V38.78H187.845C187.205 38.78 186.685 38.96 186.285 39.32C185.925 39.68 185.745 40.2 185.745 40.88V63.92C185.745 64.56 185.925 65.08 186.285 65.48C186.685 65.84 187.205 66.02 187.845 66.02H220.905V74H186.165ZM227.221 74V30.8H235.141V48.38H263.461V30.8H271.381V74H263.461V56.42H235.141V74H227.221Z" fill="white"/>
<path d="M59.176 111C64.9027 105.291 69.935 100.159 75.0744 95.2206C76.7721 93.588 76.2408 91.4623 76.2458 89.4699C76.2835 68.4673 76.363 47.4636 76.2006 26.4632C76.1672 22.1419 76.917 20.9 80.5 21C92 21 256.51 21 269 21C260 13 256.5 10 245 0C241.5 0 101.885 0.0719922 100.763 0.069771C87.9838 0.0508907 75.2049 0.075324 62.4268 0.0275681C60.5424 0.0209045 59.1174 -0.089045 59.1258 3.49376C59.2086 38.922 59.176 74.3501 59.176 111Z" fill="#232323"/>
<path d="M56.8442 111C51.1175 105.292 46.0852 100.159 40.9459 95.2206C39.2481 93.588 39.7794 91.4623 39.7744 89.4699C39.7367 68.4673 39.6572 47.4636 39.8196 26.4632C39.8531 22.1419 39.2405 20.577 35.6576 20.677C24.0785 21.0168 12.4903 20.8036 0 20.8036C4.30428 13.7313 8.15336 7.38086 12.0075 1.05043C12.8861 -0.393352 14.1353 0.0719904 15.2574 0.0697692C28.0364 0.0508889 40.8153 0.0753222 53.5934 0.0275663C55.4778 0.0209027 56.9028 -0.0890467 56.8944 3.49375C56.8116 38.922 56.8442 74.3501 56.8442 111Z" fill="#232323"/>
<path d="M59.176 111C64.9027 105.291 69.935 100.159 75.0744 95.2206C76.7721 93.588 76.2408 91.4623 76.2458 89.4699C76.2835 68.4673 76.363 47.4636 76.2006 26.4632C76.1672 22.1419 76.917 20.9 80.5 21C92 21 256.51 21 269 21C260 13 256.5 10 245 0C241.5 0 101.885 0.0719922 100.763 0.069771C87.9838 0.0508907 75.2049 0.075324 62.4268 0.0275681C60.5424 0.0209045 59.1174 -0.089045 59.1258 3.49376C59.2086 38.922 59.176 74.3501 59.176 111Z" fill="url(#paint0_linear_88_319)" fill-opacity="0.2"/>
<path d="M56.8442 111C51.1175 105.292 46.0852 100.159 40.9459 95.2206C39.2481 93.588 39.7794 91.4623 39.7744 89.4699C39.7367 68.4673 39.6572 47.4636 39.8196 26.4632C39.8531 22.1419 39.2405 20.577 35.6576 20.677C24.0785 21.0168 12.4903 20.8036 0 20.8036C4.30428 13.7313 8.15336 7.38086 12.0075 1.05043C12.8861 -0.393352 14.1353 0.0719904 15.2574 0.0697692C28.0364 0.0508889 40.8153 0.0753222 53.5934 0.0275663C55.4778 0.0209027 56.9028 -0.0890467 56.8944 3.49375C56.8116 38.922 56.8442 74.3501 56.8442 111Z" fill="url(#paint1_linear_88_319)" fill-opacity="0.2"/>
<defs>
<linearGradient id="paint0_linear_88_319" x1="95.5" y1="-1.51629e-05" x2="59" y2="111" gradientUnits="userSpaceOnUse">
<stop stop-color="#009BDB"/>
<stop offset="0.25" stop-color="#009BDB" stop-opacity="0.6"/>
<stop offset="0.83" stop-color="#8081ED" stop-opacity="0.6"/>
<stop offset="1" stop-color="white"/>
</linearGradient>
<linearGradient id="paint1_linear_88_319" x1="13.6716" y1="1.7217e-06" x2="57" y2="111" gradientUnits="userSpaceOnUse">
<stop stop-color="#009BDB"/>
<stop offset="0.25" stop-color="#009BDB" stop-opacity="0.6"/>
<stop offset="0.83" stop-color="#8081ED" stop-opacity="0.6"/>
<stop offset="1" stop-color="white"/>
</linearGradient>
</defs>
</svg>
