<svg width="386" height="339" viewBox="0 0 386 339" fill="none" xmlns="http://www.w3.org/2000/svg">
<g filter="url(#filter0_d_101_1564)">
<path d="M178.863 304.136C170.008 265.076 165.108 226.042 165.065 194.224L179.118 194.198C179.158 224.541 183.88 261.979 192.413 299.615L178.863 304.136Z" fill="#407597"/>
<path d="M196.9 297.103L183.01 294.508C186.742 265.116 190.25 231.536 193.435 194.699L207.411 196.477C204.202 233.586 200.666 267.441 196.9 297.103Z" fill="#407597"/>
<path d="M214.86 305.117C214.684 314.798 185.115 309.869 184.345 306.362C183.576 302.855 185.496 282.129 186.937 281.222C188.377 280.314 198.186 281.035 198.937 282.993C199.686 284.95 199.811 294.961 199.811 294.961C199.811 294.961 215.004 297.19 214.86 305.117Z" fill="#6F6588"/>
<path d="M185.545 303.025C186.403 303.601 187.386 303.829 188.35 304.049C196.193 305.835 197.912 306.91 205.847 305.895C207.095 305.734 208.364 305.496 209.479 304.796C210.594 304.096 211.545 302.859 211.744 301.355C211.795 300.963 211.781 300.558 211.713 300.166C213.633 301.539 214.895 303.179 214.86 305.118C214.684 314.799 185.115 309.87 184.345 306.364C184.164 305.539 184.133 303.757 184.209 301.51C184.523 302.141 185.008 302.665 185.545 303.025Z" fill="#453248"/>
<path d="M190.544 297.434C190.035 298.252 189.339 298.934 188.519 299.182C187.62 299.454 186.651 299.175 185.841 298.63C185.306 298.27 184.835 297.784 184.44 297.22C184.642 294.356 184.944 291.268 185.292 288.571C185.429 288.459 185.568 288.347 185.717 288.255C190.589 285.229 193.113 293.313 190.544 297.434Z" fill="#453248"/>
<path d="M203.221 295.678C203.724 295.424 204.337 295.188 204.5 294.556C204.606 294.15 204.47 293.689 204.222 293.386C203.975 293.083 203.635 292.916 203.291 292.824C202.176 292.523 200.969 292.96 200.095 293.85C199.351 294.607 197.191 298.88 199.1 299.205C200.519 299.448 201.987 296.297 203.221 295.678Z" fill="#453248"/>
<path d="M201.486 292.077C201.99 291.823 202.602 291.587 202.766 290.956C202.872 290.549 202.735 290.09 202.488 289.786C202.241 289.483 201.9 289.316 201.557 289.224C200.442 288.923 199.235 289.36 198.361 290.25C197.617 291.007 195.457 295.28 197.365 295.606C198.784 295.847 200.252 292.698 201.486 292.077Z" fill="#453248"/>
<path d="M200.821 288.074C201.365 288.027 202.007 288.039 202.329 287.504C202.535 287.16 202.526 286.671 202.371 286.288C202.216 285.905 201.937 285.616 201.636 285.396C200.657 284.682 199.399 284.631 198.336 285.138C197.433 285.57 194.266 288.789 195.989 289.832C197.271 290.608 199.488 288.187 200.821 288.074Z" fill="#453248"/>
<path d="M155.564 304.93C155.74 314.612 185.309 309.683 186.079 306.176C186.849 302.668 184.928 281.943 183.488 281.035C182.048 280.128 172.239 280.848 171.489 282.806C170.739 284.764 170.614 294.775 170.614 294.775C170.614 294.775 155.421 297.004 155.564 304.93Z" fill="#6F6588"/>
<path d="M184.88 302.839C184.022 303.414 183.039 303.643 182.075 303.862C174.232 305.649 172.513 306.723 164.578 305.708C163.33 305.548 162.061 305.309 160.945 304.609C159.83 303.91 158.879 302.672 158.681 301.169C158.629 300.777 158.644 300.371 158.711 299.979C156.791 301.352 155.529 302.992 155.564 304.931C155.74 314.613 185.309 309.684 186.079 306.177C186.26 305.352 186.291 303.57 186.216 301.324C185.902 301.954 185.417 302.478 184.88 302.839Z" fill="#453248"/>
<path d="M179.88 297.249C180.389 298.066 181.086 298.749 181.905 298.996C182.805 299.267 183.773 298.989 184.584 298.443C185.118 298.084 185.589 297.597 185.985 297.034C185.782 294.17 185.48 291.082 185.132 288.385C184.995 288.273 184.856 288.161 184.708 288.068C179.836 285.043 177.312 293.126 179.88 297.249Z" fill="#453248"/>
<path d="M167.204 295.491C166.7 295.237 166.088 295.001 165.924 294.37C165.818 293.963 165.955 293.503 166.202 293.2C166.449 292.896 166.79 292.729 167.133 292.637C168.248 292.336 169.455 292.773 170.329 293.663C171.073 294.42 173.233 298.693 171.325 299.019C169.905 299.261 168.438 296.111 167.204 295.491Z" fill="#453248"/>
<path d="M168.939 291.89C168.435 291.636 167.823 291.4 167.659 290.768C167.553 290.362 167.69 289.902 167.937 289.598C168.185 289.295 168.525 289.128 168.868 289.036C169.983 288.735 171.191 289.172 172.065 290.063C172.808 290.82 174.968 295.094 173.06 295.419C171.641 295.66 170.173 292.511 168.939 291.89Z" fill="#453248"/>
<path d="M169.605 287.887C169.06 287.841 168.418 287.853 168.097 287.318C167.89 286.973 167.899 286.485 168.054 286.102C168.209 285.718 168.488 285.43 168.79 285.21C169.768 284.496 171.027 284.444 172.089 284.952C172.992 285.383 176.16 288.602 174.436 289.646C173.154 290.421 170.937 288 169.605 287.887Z" fill="#453248"/>
<path d="M150.162 199.271C145.802 177.437 145.423 154.254 149.065 132.227L156.938 134.141C153.524 154.786 153.88 176.513 157.967 196.977L150.162 199.271Z" fill="#FABB8F"/>
<path d="M156.53 142.797L145.559 141.282C147.407 121.608 157.655 100.235 170.989 100.013L171.141 113.405C165.765 113.494 158.049 126.624 156.53 142.797Z" fill="#E9E9E9"/>
<path d="M206.772 180.745L164.837 174.696C163.304 182.794 163.826 168.928 163.874 176.569C163.898 180.275 163.897 202.716 170.71 208.178C175.892 212.333 182.049 213.553 188.238 214.084C192.853 214.48 195.606 214.36 199.849 211.019C206.739 205.59 210.084 190.964 206.772 180.745Z" fill="#407597"/>
<path d="M163.066 188.353C164.37 170.319 160.116 122.127 161.419 104.093C161.647 100.93 171.577 99.486 173.274 99.1773C179.281 98.0821 185.294 98.148 191.356 98.0151C196.924 97.8931 203.124 98.0557 207.138 102.738C210.795 107.004 211.478 113.796 211.125 119.935C209.755 143.754 209.395 167.753 209.266 191.695C205.403 199.572 163.517 193.959 163.066 188.353Z" fill="#E9E9E9"/>
<path d="M151.207 203.793C154.925 205.203 158.878 202.707 160.067 198.216C160.717 198.432 161.396 198.243 162.07 197.455C162.516 196.934 162.686 196.132 162.629 195.384C162.572 194.636 162.314 193.931 162.008 193.277C160.853 190.8 158.949 188.85 156.742 187.882C156.572 187.809 156.391 187.744 156.215 187.745C155.964 187.609 155.705 187.485 155.436 187.382C151.7 185.965 147.724 188.491 146.557 193.022C145.388 197.554 147.471 202.377 151.207 203.793Z" fill="#FABB8F"/>
<path d="M220.982 198.536C225.342 176.702 225.722 153.519 222.08 131.492L214.206 133.408C217.62 154.052 217.264 175.779 213.177 196.243L220.982 198.536Z" fill="#FABB8F"/>
<path d="M214.613 142.062L225.584 140.547C223.736 120.873 213.488 99.5002 200.154 99.2783L200.003 112.669C205.379 112.759 213.095 125.89 214.613 142.062Z" fill="#E9E9E9"/>
<path d="M219.938 203.059C216.22 204.468 212.266 201.973 211.077 197.483C210.427 197.698 209.748 197.509 209.074 196.721C208.628 196.199 208.458 195.399 208.516 194.65C208.573 193.902 208.831 193.198 209.136 192.543C210.292 190.066 212.196 188.116 214.404 187.148C214.572 187.074 214.754 187.01 214.93 187.011C215.182 186.875 215.44 186.751 215.709 186.648C219.445 185.231 223.421 187.757 224.589 192.289C225.756 196.82 223.674 201.642 219.938 203.059Z" fill="#FABB8F"/>
<path d="M177.774 103.461C177.426 101.127 184.712 97.5713 184.712 97.5713C184.712 97.5713 192.564 97.7998 192.913 100.134C193.261 102.468 190.155 105.105 185.975 106.024C181.795 106.942 178.123 105.795 177.774 103.461Z" fill="#FABB8F"/>
<path d="M184.618 104.318C184.644 104.321 184.671 104.324 184.696 104.327C186.808 104.602 188.739 102.884 189.048 100.335L191.418 80.728C189.417 80.5017 187.416 80.2743 185.414 80.0469C182.009 79.6613 182.623 86.7426 182.299 89.6626L181.264 99.0103C180.978 101.601 182.475 104.046 184.618 104.318Z" fill="#FABB8F"/>
<path d="M146.708 53.6605C146.708 53.6605 143.754 15.0272 177.425 5.32465C219.429 -6.77935 214.174 35.689 213.65 51.8951C213.127 68.1011 146.708 53.6605 146.708 53.6605Z" fill="#453248"/>
<path d="M152.247 52.508C151.645 50.1417 149.413 48.6301 147.41 49.1079C145.406 49.5858 143.839 51.8818 143.701 54.3525C143.562 56.8232 144.781 59.285 146.586 60.444C148.39 61.6019 150.676 61.4767 152.458 60.2716" fill="#FABB8F"/>
<path d="M208.298 50.5801C208.986 48.249 211.272 46.8593 213.255 47.4448C215.239 48.0292 216.72 50.4087 216.768 52.8838C216.816 55.3589 215.508 57.7537 213.663 58.8139C211.818 59.8729 209.539 59.6257 207.802 58.3239" fill="#FABB8F"/>
<path d="M149.84 61.2647C150.707 70.8793 153.854 80.5665 159.98 86.7569C166.529 93.3736 175.603 95.1697 184.104 94.4359C191.261 93.8185 198.692 91.3281 203.668 85.0596C211.559 75.122 210.896 59.4466 209.717 45.7244C209.055 38.0278 208.25 29.8841 204.323 23.7871C200.213 17.4055 193.398 14.4877 186.79 13.3408C180.232 12.2027 173.391 12.5312 167.2 15.3952C151.052 22.8676 148.144 42.4759 149.84 61.2647Z" fill="#FBA278"/>
<path d="M158.701 75.7537C156.494 71.4099 155.149 66.4906 154.534 61.4569C154.208 58.7918 154.086 56.0916 154.137 53.3979C154.182 51.025 154.725 48.4686 154.554 46.1407C160.851 45.4651 166.79 44.9092 172.851 42.4188C178.75 39.9965 184.33 36.4184 189.272 31.8176C192.143 34.9101 195.467 37.3797 199.035 39.0956C200.38 39.7427 203.404 40.0217 204.419 41.1214C205.392 42.1738 205.72 45.7947 205.997 47.2964C207.638 56.2047 207.095 65.9105 203.47 74.0267C196.928 88.6728 179.509 94.4798 167.584 86.1977C163.973 83.6919 160.883 80.0502 158.701 75.7537Z" fill="#FABB8F"/>
<path d="M159.677 60.7034C160.219 60.676 160.753 60.9001 161.216 61.2428C162.237 62.0008 162.937 63.4059 162.915 64.8571C162.893 66.3083 162.1 67.7288 160.963 68.1836C156.842 69.8314 155.882 60.8957 159.677 60.7034Z" fill="#453248"/>
<path d="M189.465 57.4229C190.007 57.3955 190.542 57.6196 191.004 57.9623C192.025 58.7203 192.725 60.1254 192.703 61.5766C192.682 63.0278 191.888 64.4483 190.752 64.9031C186.63 66.552 185.67 57.6152 189.465 57.4229Z" fill="#453248"/>
<path d="M178.925 80.1523C176.772 80.1523 174.691 78.3726 173.971 75.9097C173.879 75.5933 174.016 75.245 174.276 75.133C174.536 75.0209 174.824 75.1857 174.917 75.5032C175.499 77.4949 177.183 78.9351 178.925 78.9351C178.932 78.9351 178.939 78.9351 178.946 78.9351C180.696 78.923 182.378 77.4565 182.944 75.4472C183.034 75.1286 183.318 74.9605 183.582 75.0682C183.844 75.1769 183.984 75.523 183.894 75.8416C183.194 78.3254 181.115 80.1391 178.953 80.1534C178.944 80.1523 178.935 80.1523 178.925 80.1523Z" fill="#453248"/>
<path d="M178.301 68.3493C177.971 68.3493 177.643 68.2702 177.34 68.1054C176.315 67.5473 175.71 66.0697 175.962 64.7416C176.165 63.6727 176.902 62.8114 177.767 62.5368L176.441 56.4134C176.37 56.0882 176.531 55.7553 176.799 55.6707C177.068 55.5861 177.341 55.7795 177.411 56.1047L178.884 62.9004C178.924 63.086 178.89 63.2838 178.791 63.4343C178.694 63.5848 178.556 63.6749 178.384 63.6639C177.721 63.6309 177.086 64.245 176.94 65.014C176.794 65.783 177.158 66.6718 177.752 66.9947C178.344 67.3188 179.134 67.0585 179.511 66.4158C179.674 66.1423 179.987 66.0796 180.212 66.273C180.438 66.4685 180.49 66.8486 180.329 67.1222C179.87 67.9044 179.084 68.3493 178.301 68.3493Z" fill="#453248"/>
<path d="M159.394 44.7928C160.129 44.7566 161.037 44.9565 161.264 45.8057C161.473 46.589 160.943 47.3602 160.426 47.8941C159.066 49.2969 157.481 50.379 155.785 51.0601C153.522 51.9687 149.933 51.0096 152.731 47.9622C154.513 46.0221 157.021 44.9115 159.394 44.7928Z" fill="#453248"/>
<path d="M195.305 42.5342C194.589 42.7385 193.759 43.2296 193.729 44.1205C193.701 44.9433 194.383 45.5135 194.998 45.8584C196.62 46.7658 198.387 47.2899 200.171 47.392C202.552 47.5282 205.796 45.4322 202.424 43.4108C200.28 42.1233 197.617 41.8728 195.305 42.5342Z" fill="#453248"/>
<path d="M196.363 7.53164C196.127 7.0296 195.744 6.48581 195.337 6.26061C195.439 5.9607 195.463 5.77504 195.394 5.73109C189.96 2.23875 182.577 -0.735064 176.327 0.161366C170.712 0.966615 163.806 5.14886 158.961 8.71371C157.397 9.8639 155.903 11.1558 154.28 12.1786C149.954 14.9052 144.96 15.572 140.089 15.8247C140.589 22.9335 141.38 30.741 144.96 36.1174C145.557 37.0139 146.231 37.8422 146.994 38.5881C152.766 44.2347 161.074 42.566 167.755 40.8413C175.61 38.8144 183.179 35.1595 190.019 30.0566C192.295 28.3594 194.522 26.4698 196.211 23.9596C197.9 21.4494 199.014 18.2306 198.768 15.0041C198.563 12.3203 197.459 9.87489 196.363 7.53164Z" fill="#453248"/>
<path d="M148.075 38.2333C148.075 38.2333 143.713 57.9504 150.228 64.544C150.228 64.544 150.325 46.8516 152.459 37.1567L148.075 38.2333Z" fill="#453248"/>
<path d="M211.16 38.0816C212.575 31.699 212.756 24.8241 211.126 18.5173C209.496 12.2104 205.959 6.5308 201.126 3.47788C197.871 1.42247 191.04 -0.932858 188.203 3.2329C185.652 6.97682 188.036 13.1859 189.58 16.7782C193.984 27.0202 201.924 35.0825 211.16 38.0816Z" fill="#453248"/>
<path d="M211.364 33.0459C211.364 33.0459 215.726 52.763 209.211 59.3565C209.211 59.3565 210.193 45.0895 208.059 35.3935L211.364 33.0459Z" fill="#453248"/>
<path d="M212.176 52.2917C211.267 51.7072 210.118 51.6039 208.939 52.0016C207.962 52.3301 207.08 52.9475 206.301 53.4924L200.993 57.2066C200.475 55.4138 199.638 53.7451 198.486 52.4202C195.902 49.4464 192.021 48.2918 188.595 49.4859C185.082 50.7075 182.816 53.834 182.378 58.0624C182.346 58.3799 182.325 58.6974 182.314 59.0149C180.827 58.125 179.122 57.734 177.48 57.9482C175.819 58.1547 174.205 58.9962 172.899 60.2749C172.372 58.6974 171.586 57.2385 170.555 56.0521C167.97 53.0782 164.086 51.9247 160.663 53.1178C157.15 54.3394 154.884 57.4659 154.446 61.6954C154.444 61.7195 154.444 61.7426 154.441 61.7668C153.525 60.5298 152.517 59.7333 151.199 58.7084L151.095 58.6271C150.721 58.336 150.223 58.4678 149.983 58.9226C149.743 59.3763 149.853 59.9805 150.227 60.2727L150.331 60.3529C152.173 61.7855 153.187 62.5742 154.263 64.7714C154.325 64.8988 154.411 64.9933 154.506 65.0713C154.996 68.7273 156.848 72.1032 159.596 74.0499C161.552 75.4362 163.84 75.9559 166.014 75.5648C166.723 75.4373 167.418 75.2143 168.087 74.8925C170.653 73.6599 172.498 71.2035 173.286 67.9759C173.729 66.1588 173.739 64.21 173.407 62.3336C174.542 60.9857 176.061 60.1036 177.65 59.8904C179.307 59.6751 181.045 60.2035 182.425 61.3394C182.894 65.0339 184.755 68.4538 187.527 70.418C189.484 71.8044 191.771 72.324 193.946 71.9329C194.653 71.8055 195.35 71.5825 196.018 71.2606C198.583 70.028 200.43 67.5716 201.218 64.344C201.625 62.6753 201.668 60.8956 201.418 59.1643L207.105 55.1853C207.834 54.6745 208.588 54.1471 209.368 53.8846C209.821 53.733 210.687 53.5473 211.419 54.0186C211.812 54.2713 212.3 54.09 212.508 53.6143C212.718 53.1354 212.568 52.5443 212.176 52.2917ZM171.742 67.42C171.097 70.0599 169.589 72.068 167.493 73.0754C165.226 74.1641 162.576 73.8982 160.407 72.3614C157.375 70.2126 155.62 66.0237 156.043 61.9371C156.396 58.5205 158.241 55.9905 161.105 54.9941C161.455 54.8722 161.811 54.7799 162.17 54.7151C164.77 54.2482 167.531 55.2655 169.445 57.4681C171.653 60.0069 172.575 64.0068 171.742 67.42ZM199.675 63.7881C199.031 66.428 197.522 68.4362 195.427 69.4436C193.16 70.5333 190.51 70.2664 188.341 68.7295C185.308 66.5807 183.554 62.3908 183.977 58.3052C184.33 54.8887 186.175 52.3587 189.04 51.3623C189.389 51.2403 189.745 51.148 190.104 51.0832C192.704 50.6163 195.464 51.6336 197.379 53.8362C199.585 56.375 200.508 60.3738 199.675 63.7881Z" fill="#453248"/>
<path d="M126.243 89.2991C126.348 80.5018 125.212 71.4584 121.803 63.9541C117.83 55.2073 111.049 49.2498 103.82 46.0442C89.6046 39.7417 73.2363 40.8315 61.0371 53.4814C53.3412 61.4625 48.9068 74.2037 47.5137 87.1525C46.3861 97.6339 46.9975 108.779 43.5295 118.284C42.6926 120.576 41.6338 123.355 42.6835 125.483C43.0331 126.192 43.5711 126.687 44.101 127.152C56.0656 137.69 70.5427 142.957 84.8179 141.965L87.1619 140.612C97.3359 143.187 107.913 142.835 117.981 139.588C120.831 138.669 124.189 136.664 124.393 132.724C124.478 131.085 123.956 129.516 123.634 127.931C122.81 123.887 123.277 119.592 123.791 115.456C124.869 106.781 126.138 98.0964 126.243 89.2991Z" fill="#AA445A"/>
<path d="M189.456 225.163H152.205V331H189.456V225.163Z" fill="#E9E9E9"/>
<path d="M119.043 199.768C111.988 191.616 100.357 192.804 92.3889 186.004C85.768 180.355 82.9177 170.382 79.7884 161.327C74.0552 144.735 55.7821 125.463 44.495 148.647C40.8947 156.042 40.4102 164.991 40.0153 173.567C39.5026 184.697 38.9963 195.952 40.6466 206.919C42.0912 216.52 45.3591 225.982 51.2064 232.868C57.4568 240.231 65.6826 244.152 74.3649 245.751L77.6763 266.478H79.7431C79.8908 270.004 79.725 280.013 79.6444 284.293C78.716 284.293 77.9951 284.293 77.8248 284.293L77.2207 288.583C76.4191 288.612 75.5994 288.647 74.7435 288.694L74.748 288.815C64.6836 289.788 61.9945 292.837 61.0308 294.75C59.6405 295.86 58.7203 297.764 58.7203 299.934C58.7203 303.362 61.0118 306.142 63.8386 306.142C66.6653 306.142 68.9577 303.362 68.9577 299.934C68.9577 297.868 68.1172 296.051 66.8383 294.923C69.2693 293.828 73.6576 292.837 81.5356 292.823C89.4136 292.838 93.8009 293.828 96.2328 294.923C94.9539 296.051 94.1134 297.868 94.1134 299.934C94.1134 303.362 96.4048 306.142 99.2316 306.142C102.058 306.142 104.351 303.362 104.351 299.934C104.351 297.764 103.43 295.86 102.04 294.75C101.077 292.837 98.3875 289.788 88.3231 288.815L88.3276 288.694C87.5233 288.65 86.7525 288.616 85.9963 288.589L85.5425 284.293C85.5425 284.293 84.644 284.293 83.4648 284.293V266.478H85.3939L89.3737 246.408C93.1922 246.105 96.9374 245.497 100.472 244.637C100.618 244.602 100.766 244.569 100.91 244.521C109.647 241.568 117.919 236.438 121.776 225.971C124.891 217.509 124.897 206.533 119.043 199.768Z" fill="#453248"/>
<path d="M131.179 289.537C130.117 262.068 126.735 243.845 120.842 233.829C115.498 224.747 107.402 224.713 102.044 224.69C100.703 224.684 98.7706 224.675 97.8322 224.435C97.7842 224.179 97.729 223.791 97.6955 223.236L84.356 224.408C85.3369 240.841 97.0117 240.89 101.997 240.912C106.947 240.933 108.791 241.276 109.954 243.253C112.906 248.27 116.667 260.504 117.819 290.298L131.179 289.537Z" fill="#316684"/>
<path d="M146.362 297.072C147.637 305.835 120.257 307.834 119.044 304.84C117.832 301.846 116.494 282.749 117.658 281.617C118.822 280.486 127.768 279 128.735 280.6C129.7 282.201 131.295 291.197 131.295 291.197C131.295 291.197 145.318 289.896 146.362 297.072Z" fill="#EB4746"/>
<path d="M119.631 301.572C120.49 301.904 121.409 301.895 122.31 301.884C129.643 301.786 131.351 302.381 138.353 299.736C139.454 299.32 140.563 298.828 141.464 297.956C142.365 297.082 143.039 295.759 142.995 294.361C142.984 293.996 142.911 293.635 142.792 293.295C144.725 294.115 146.106 295.318 146.361 297.073C147.636 305.837 120.256 307.835 119.043 304.841C118.758 304.137 118.466 302.538 118.202 300.497C118.579 300.996 119.094 301.363 119.631 301.572Z" fill="#070A1E"/>
<path d="M134.474 291.099C134.891 290.761 135.408 290.414 135.462 289.81C135.498 289.42 135.307 289.035 135.039 288.815C134.771 288.596 134.439 288.52 134.116 288.511C133.068 288.483 132.044 289.14 131.388 290.133C130.83 290.977 129.515 295.299 131.283 295.176C132.598 295.086 133.454 291.928 134.474 291.099Z" fill="#070A1E"/>
<path d="M132.378 288.233C132.794 287.895 133.311 287.549 133.366 286.943C133.401 286.553 133.21 286.169 132.942 285.949C132.674 285.729 132.342 285.654 132.02 285.645C130.971 285.617 129.947 286.273 129.291 287.266C128.733 288.11 127.419 292.432 129.187 292.31C130.501 292.219 131.357 289.06 132.378 288.233Z" fill="#070A1E"/>
<path d="M131.185 284.769C131.668 284.609 132.249 284.479 132.459 283.928C132.594 283.572 132.514 283.133 132.318 282.823C132.122 282.511 131.827 282.312 131.522 282.179C130.535 281.748 129.393 281.976 128.51 282.664C127.76 283.25 125.382 286.841 127.09 287.407C128.361 287.826 130.001 285.161 131.185 284.769Z" fill="#070A1E"/>
<path d="M111.28 291.736C113.058 274.945 115.072 255.914 113.55 242.039C112.325 230.869 103.473 228.616 97.6149 227.124C88.9217 224.912 87.2661 223.822 87.8113 216.298L74.4881 214.876C72.8551 237.398 87.7225 241.182 94.8687 243.001C96.6584 243.457 99.2615 244.12 100.356 244.778C101.52 256.554 99.6591 274.131 98.0143 289.669L111.28 291.736Z" fill="#407597"/>
<path d="M102.377 223.874C102.272 221.64 101.909 219.423 101.295 217.313C100.968 216.19 100.555 215.067 99.8521 214.236C98.8585 213.059 97.3948 212.617 96.0073 212.683C94.6197 212.749 93.2765 213.268 91.9541 213.782C88.6039 215.084 83.2501 216.12 81.8136 220.707C79.9035 226.809 85.4492 232.94 89.9588 233.662C93.4758 234.224 97.009 232.922 100.306 231.336C100.78 231.107 101.269 230.859 101.61 230.401C102.038 229.828 102.168 229.02 102.25 228.253C102.404 226.802 102.446 225.334 102.377 223.874Z" fill="#407597"/>
<path d="M124.981 305.266C124.923 314.165 97.7 310.1 96.9555 306.887C96.211 303.676 97.7544 284.602 99.0686 283.746C100.383 282.89 109.403 283.399 110.113 285.185C110.823 286.973 111.044 296.17 111.044 296.17C111.044 296.17 125.028 297.979 124.981 305.266Z" fill="#EB4746"/>
<path d="M98.0216 303.803C98.8159 304.319 99.7216 304.512 100.609 304.699C107.834 306.217 109.426 307.179 116.707 306.121C117.852 305.955 119.015 305.714 120.032 305.054C121.05 304.394 121.91 303.241 122.077 301.857C122.12 301.496 122.102 301.123 122.036 300.764C123.815 301.996 124.992 303.482 124.981 305.265C124.923 314.164 97.7 310.099 96.9555 306.886C96.7807 306.132 96.7336 304.494 96.778 302.428C97.0733 303.005 97.5252 303.48 98.0216 303.803Z" fill="#070A1E"/>
<path d="M114.185 296.774C114.645 296.534 115.206 296.306 115.35 295.724C115.442 295.348 115.313 294.929 115.082 294.653C114.852 294.378 114.537 294.23 114.22 294.151C113.193 293.892 112.088 294.312 111.294 295.144C110.619 295.851 108.68 299.812 110.436 300.081C111.743 300.281 113.058 297.363 114.185 296.774Z" fill="#070A1E"/>
<path d="M112.553 293.492C113.013 293.252 113.574 293.025 113.718 292.442C113.81 292.067 113.681 291.647 113.45 291.371C113.22 291.097 112.904 290.948 112.588 290.869C111.561 290.611 110.456 291.031 109.662 291.862C108.987 292.57 107.047 296.53 108.804 296.799C110.11 296.999 111.425 294.082 112.553 293.492Z" fill="#070A1E"/>
<path d="M111.899 289.824C112.398 289.774 112.989 289.774 113.279 289.277C113.465 288.958 113.451 288.508 113.305 288.159C113.158 287.81 112.899 287.548 112.619 287.351C111.713 286.709 110.555 286.681 109.584 287.165C108.759 287.576 105.882 290.584 107.477 291.515C108.665 292.208 110.675 289.95 111.899 289.824Z" fill="#070A1E"/>
<path d="M124.974 190.714C125.751 190.714 126.526 190.664 127.297 190.559C136.35 189.349 144.38 180.45 146.391 169.4L137.298 166.965C136.14 173.33 131.402 178.649 126.277 179.334C120.339 180.107 114.689 175.361 111.387 170.635C107.148 164.564 104.562 156.642 102.061 148.981L93.4042 153.139C96.0516 161.253 99.0532 170.449 104.284 177.937C109.968 186.075 117.557 190.714 124.974 190.714Z" fill="#EB4746"/>
<path d="M99.0804 145.012C99.2434 145.252 98.8304 144.937 99.0804 145.012Z" fill="#FABB8F"/>
<path d="M70.9522 156.734C71.6088 159.601 72.2175 162.483 72.7754 165.38C73.3641 168.435 73.4012 170.977 73.5126 174.078C73.74 180.38 75.1321 186.524 75.3911 192.823C75.5668 197.094 75.219 201.367 74.8558 205.62C74.335 211.708 73.6168 217.761 72.9366 223.826C82.2475 228.171 92.3363 227.941 101.989 225.531C102.264 225.462 102.557 225.379 102.749 225.131C102.955 224.866 102.997 224.476 103.023 224.114C103.307 220.072 102.785 216.019 102.265 212.012C101.46 205.816 100.655 199.62 99.8502 193.424C99.0813 187.503 100.524 181.462 101.037 175.496C101.622 168.674 102.288 161.86 102.746 155.023C102.876 153.072 102.987 151.072 102.55 149.187C101.325 143.898 96.9845 144.2 93.3671 145.536C88.2352 147.43 82.6913 147.653 77.467 146.175C75.8693 145.724 74.1458 145.126 72.6422 145.922C71.1224 146.728 70.2783 148.803 70.1578 150.81C70.0555 152.524 70.3843 154.219 70.7592 155.885C70.8226 156.169 70.8879 156.452 70.9522 156.734Z" fill="#EB4746"/>
<path d="M89.3212 164.121C89.0685 165.434 87.6791 165.29 87.4146 164.083C87.2263 163.22 87.767 162.173 88.5749 162.409C89.1971 162.591 89.4561 163.418 89.3212 164.121Z" fill="#C93131"/>
<path d="M88.9988 176.828C88.7461 178.141 87.3558 177.998 87.0922 176.79C86.9038 175.928 87.4445 174.881 88.2524 175.117C88.8738 175.297 89.1337 176.124 88.9988 176.828Z" fill="#C93131"/>
<path d="M88.9988 191.71C88.7461 193.023 87.3558 192.88 87.0922 191.672C86.9038 190.81 87.4445 189.764 88.2524 189.999C88.8738 190.179 89.1337 191.007 88.9988 191.71Z" fill="#C93131"/>
<path d="M88.0287 151.197C87.997 151.197 85.2119 148.957 85.192 151.197C85.1639 154.314 83.2935 151.078 83.1885 147.962L82.3833 124.003C84.8152 124.037 87.247 124.072 89.6789 124.106C93.8163 124.164 92.3399 132.592 92.4242 136.155L92.6941 147.564C92.7683 150.725 90.6363 151.201 88.0287 151.197Z" fill="#FABB8F"/>
<path d="M147.04 163.047C150.862 164.934 152.698 170.22 151.142 174.855C149.586 179.49 145.228 181.717 141.407 179.831C137.586 177.944 135.75 172.657 137.305 168.022C138.861 163.387 143.219 161.16 147.04 163.047Z" fill="#FABB8F"/>
<path d="M135.171 168.543C134.665 169.043 134.428 169.867 134.434 170.658C134.439 171.45 134.659 172.218 134.932 172.937C135.966 175.663 137.824 177.914 140.072 179.166C140.319 179.304 140.595 179.432 140.858 179.345C142.348 178.846 139.336 164.434 135.171 168.543Z" fill="#FABB8F"/>
<path d="M144.571 142.047C143.741 141.378 142.682 140.794 141.641 140.709C140.542 140.618 139.504 140.813 138.419 141.603L135.184 184.385L138.875 195.273L143.604 184.993L144.571 142.047Z" fill="#453248"/>
<path d="M135.184 184.385L137.976 192.619L139.045 191.825L140.028 192.767L143.604 184.993L140.123 186.384L137.856 184.578L136.271 185.416L135.184 184.385Z" fill="#FABB8F"/>
<path d="M141.62 168.831C140.855 170.008 140.281 171.459 140.36 172.955C140.439 174.451 141.32 175.944 142.543 176.16C143.653 176.357 144.7 175.525 145.553 174.644C146.854 173.302 150.493 169.702 148.794 167.382C146.698 164.519 143.236 166.344 141.62 168.831Z" fill="#FABB8F"/>
<path d="M65.5296 211.226C58.5763 211.226 53.2769 208.127 51.0117 202.566C50.0471 200.197 49.7528 197.409 50.1132 194.043C51.0262 185.515 54.8891 177.696 57.715 172.556C60.5309 167.435 63.758 162.737 66.8782 158.196C68.225 156.236 69.6171 154.208 70.934 152.204L77.9072 158.952C76.5305 161.043 75.1076 163.116 73.7309 165.12C70.6234 169.644 67.6879 173.917 65.1356 178.559C62.8061 182.795 59.6306 189.155 58.9585 195.436C58.7846 197.063 58.9531 197.636 59.0093 197.775C59.9567 200.102 64.3331 200.76 68.1698 200.211C70.1597 199.926 72.1767 199.378 74.3115 198.8C77.6681 197.888 81.138 196.947 84.8867 196.928L84.9221 207.745C82.1415 207.76 79.2839 208.534 76.2597 209.356C73.999 209.97 71.6613 210.605 69.2168 210.954C67.9443 211.136 66.7134 211.226 65.5296 211.226Z" fill="#EB4746"/>
<path d="M83.9249 211.054C88.6093 212.613 93.0392 208.631 93.4178 203.081C93.9567 203.106 94.4666 202.887 94.9158 202.34C95.3977 201.755 95.7165 200.551 95.5634 199.744C95.395 198.858 94.9421 198.111 94.4403 197.448C92.7666 195.239 90.428 193.788 87.9716 193.433C87.7842 193.406 87.5858 193.393 87.4047 193.445C87.1194 193.378 86.8304 193.326 86.5334 193.298C81.9296 192.881 77.9887 197.617 78.5612 203.488C78.9089 207.058 81.0691 210.104 83.9249 211.054Z" fill="#FABB8F"/>
<path d="M98.5423 154.557C98.2136 153.613 97.9102 152.432 97.6348 151.135H95.5091C97.1158 159.483 98.4491 169.34 96.3378 171.529C92.5311 175.475 75.5134 175.997 77.8121 166.744C78.9633 162.113 80.3137 156.322 81.1397 151.136H77.8465C77.5984 153.136 77.2931 155.053 76.9209 156.534C75.5686 161.911 63.3413 170.945 72.9556 180.143C76.8964 183.913 82.8543 185.279 88.3937 184.701C94.4756 184.234 100.75 181.751 104.373 177.275C113.18 166.392 100.317 159.649 98.5423 154.557Z" fill="#EB4746"/>
<path d="M101.214 158.461C104.416 163.584 107.138 169.732 102.881 175.073C95.3777 183.544 85.0615 184.956 76.6202 177.896C71.1242 174.35 72.8596 165.858 75.7706 159.045C72.5236 164.489 64.7108 172.254 72.9556 180.142C76.8964 183.912 82.8534 185.277 88.3937 184.7C94.4756 184.233 100.75 181.75 104.373 177.273C111.107 168.953 105.174 163.055 101.214 158.461Z" fill="#C93131"/>
<path d="M61.2645 96.7022C60.4059 94.1942 57.84 92.8243 55.6943 93.5977C53.5486 94.37 52.0334 97.0736 52.0931 99.7881C52.1529 102.503 53.6927 105.037 55.7613 106.075C57.83 107.113 60.3135 106.69 62.1576 105.15" fill="#FABB8F"/>
<path d="M123.679 98.605C123.163 109.192 120.155 120.009 113.724 127.196C106.852 134.877 96.9945 137.447 87.6519 137.208C79.7875 137.006 71.5364 134.772 65.804 128.238C56.7142 117.878 56.7332 100.668 57.4052 85.5618C57.782 77.0896 58.2956 68.1165 62.3224 61.1791C66.5358 53.9176 73.8668 50.2692 81.0528 48.5752C88.1836 46.8933 95.6902 46.7989 102.599 49.5244C120.619 56.6354 124.688 77.9168 123.679 98.605Z" fill="#FBA278"/>
<path d="M114.63 115.061C123.347 95.8091 118.29 67.8682 102.918 55.8422C95.097 49.7232 84.6975 48.2654 76.2742 53.065C66.7161 58.5106 64.1058 68.3955 62.9075 79.9942C61.5679 92.9638 59.4667 104.065 65.5232 116.142C73.3487 131.748 92.6869 136.95 105.372 127.09C109.214 124.105 112.434 119.911 114.63 115.061Z" fill="#FABB8F"/>
<path d="M109.985 97.6361C109.391 97.6416 108.815 97.9217 108.324 98.3282C107.241 99.2257 106.537 100.812 106.627 102.399C106.716 103.987 107.649 105.491 108.915 105.913C113.501 107.445 114.149 97.5944 109.985 97.6361Z" fill="#453248"/>
<path d="M79.9759 97.6361C79.3817 97.6416 78.8057 97.9228 78.3157 98.3293C77.2324 99.2257 76.5287 100.812 76.6175 102.401C76.7062 103.988 77.64 105.492 78.9053 105.914C83.4928 107.445 84.1404 97.5944 79.9759 97.6361Z" fill="#453248"/>
<path d="M109.694 82.4672C109.089 82.4518 108.465 82.4299 107.913 82.1321C107.36 81.8344 106.889 81.1874 106.909 80.4535C106.928 79.7263 107.426 79.1188 107.989 78.8683C108.552 78.6178 109.171 78.6541 109.77 78.7123C110.937 78.8266 118.506 79.7021 118.553 81.3665C118.616 83.6086 110.767 82.4958 109.694 82.4672Z" fill="#453248"/>
<path d="M115.574 100.333C118.486 106.93 116.284 122.711 112.392 133.73H114.46C124.366 116.842 131.888 89.8548 126.33 74.6716C116.504 47.8281 83.3588 35.0342 64.0641 53.5439C61.7409 55.7729 59.4494 58.8676 59.7664 62.439C60.0608 65.7501 62.5887 68.2054 65.2271 69.126C67.8654 70.0466 70.6678 69.8137 73.4094 69.9928C81.5863 70.5245 89.2886 74.7419 96.4302 79.5975C103.998 84.7432 111.481 91.0567 115.574 100.333Z" fill="#AA445A"/>
<path d="M79.5049 83.7897C79.7468 83.7743 80.0004 83.7699 80.2186 83.8973C80.7394 84.2016 80.8092 85.0937 80.6154 85.7539C80.3491 86.6569 79.7449 87.3688 79.0566 87.8401C78.3682 88.3114 77.5957 88.5673 76.8258 88.7881C75.4509 89.1836 74.0416 89.4824 72.6305 89.3934C71.9512 89.3506 70.9494 89.021 71.0771 87.9455C71.1976 86.9316 72.7799 86.2702 73.4139 85.8923C75.3187 84.7586 77.3719 83.9259 79.5049 83.7897Z" fill="#AA445A"/>
<path d="M103.813 86.6031C103.571 86.5877 103.317 86.5833 103.099 86.7119C102.578 87.0162 102.508 87.9082 102.702 88.5685C102.969 89.4715 103.573 90.1833 104.262 90.6546C104.95 91.1259 105.723 91.3819 106.493 91.6027C107.868 91.9982 109.277 92.297 110.688 92.208C111.367 92.1651 112.369 91.8367 112.241 90.7601C112.121 89.7461 110.539 89.0848 109.905 88.7069C107.999 87.572 105.946 86.7393 103.813 86.6031Z" fill="#AA445A"/>
<path d="M55.774 77.7235C56.043 93.4407 55.745 109.171 54.8828 124.856C56.0285 125.491 57.3019 124.336 58.0664 123.122C61.2409 118.084 61.3614 111.259 61.9039 104.953C62.7263 95.3929 64.8267 85.9968 68.0991 77.2423C68.6924 75.6549 69.3354 74.0378 69.4224 72.2977C69.6443 67.865 65.1827 60.8419 61.1857 61.8174C55.735 63.1499 55.6888 72.7174 55.774 77.7235Z" fill="#AA445A"/>
<path d="M92.9006 111.857C92.2222 111.857 91.5973 111.599 91.1009 111.106C90.889 110.896 90.8582 110.517 91.0321 110.26C91.2051 110.004 91.5158 109.964 91.7295 110.176C92.1271 110.572 92.6733 110.731 93.2584 110.622C93.9331 110.499 94.5436 110.047 94.8905 109.412C95.5544 108.198 95.4439 106.36 94.6269 105.041C94.4005 104.677 94.1885 104.465 93.9775 104.394C93.5265 104.245 93.003 104.726 92.666 105.229C92.5447 105.412 92.4314 105.603 92.3182 105.796C91.9958 106.341 91.6616 106.906 91.1535 107.302C91.014 107.41 90.8401 107.426 90.6888 107.348C90.5376 107.269 90.4289 107.103 90.3981 106.907C89.9253 103.836 90.0104 100.614 90.6453 97.5899C90.7124 97.2669 90.9823 97.0692 91.2477 97.156C91.513 97.2373 91.6733 97.5646 91.6054 97.8865C91.0828 100.378 90.9542 103.011 91.2268 105.568C91.3228 105.417 91.417 105.259 91.5121 105.096C91.6371 104.885 91.7621 104.675 91.8953 104.475C92.5845 103.44 93.464 102.974 94.2402 103.238C94.6704 103.382 95.0553 103.736 95.4185 104.322C96.4954 106.061 96.6177 108.428 95.7147 110.077C95.2156 110.99 94.3516 111.639 93.4051 111.812C93.2357 111.843 93.0664 111.857 92.9006 111.857Z" fill="#453248"/>
<path d="M84.6757 126.058C83.7364 126.058 82.7981 125.697 82.0654 124.974C80.5999 123.528 80.1353 120.803 81.0066 118.77C81.0709 118.621 81.1832 118.511 81.3173 118.467C81.4513 118.422 81.5935 118.45 81.7113 118.539C86.5578 122.25 93.2846 121.732 97.7073 117.308C97.9192 117.097 98.2308 117.135 98.4047 117.39C98.5786 117.646 98.5487 118.024 98.3376 118.235C93.7465 122.827 86.8404 123.494 81.6868 119.923C81.3372 121.36 81.733 123.095 82.6903 124.04C83.7863 125.121 85.5678 125.121 86.6619 124.038C86.8757 123.828 87.1873 123.869 87.3593 124.125C87.5323 124.382 87.5007 124.761 87.2887 124.971C86.556 125.697 85.6158 126.058 84.6757 126.058Z" fill="#453248"/>
<path d="M89.2632 154.239C89.0105 155.551 87.6202 155.409 87.3567 154.2C87.1683 153.338 87.709 152.291 88.5169 152.527C89.1391 152.708 89.3982 153.536 89.2632 154.239Z" fill="#C93131"/>
<path d="M79.6906 146.113C80.2585 146.995 81.2149 148.24 82.7574 149.336C85.144 151.031 86.9355 150.945 87.0478 151.665C87.334 153.495 76.0514 158.013 74.4193 155.576C73.6938 154.49 76.9834 147.027 79.6906 146.113Z" fill="#C93131"/>
<path d="M83.0916 144.515C83.3769 145.45 83.9221 146.806 85.0461 148.151C86.7842 150.234 88.4516 150.551 88.3629 151.236C88.1364 152.98 76.5694 154.638 75.7235 152.04C75.3458 150.884 80.3617 144.756 83.0916 144.515Z" fill="#EB4746"/>
<path d="M96.1594 145.672C95.5915 146.554 94.6341 147.8 93.0926 148.895C90.706 150.59 88.9145 150.504 88.8022 151.223C88.516 153.053 99.7986 157.572 101.431 155.134C102.157 154.05 98.8675 146.586 96.1594 145.672Z" fill="#C93131"/>
<path d="M92.7584 144.437C92.4731 145.372 91.9278 146.728 90.8047 148.074C89.0666 150.156 87.3983 150.473 87.488 151.158C87.7144 152.902 99.2814 154.561 100.128 151.962C100.504 150.806 95.4891 144.678 92.7584 144.437Z" fill="#EB4746"/>
<path d="M89.5883 176.828C89.3356 178.141 87.9454 177.997 87.6818 176.79C87.4934 175.928 88.0341 174.881 88.842 175.117C89.4643 175.297 89.7233 176.124 89.5883 176.828Z" fill="#C93131"/>
<path d="M329.43 200.96C322.375 192.809 310.746 193.997 302.776 187.197C296.155 181.548 293.305 171.575 290.176 162.519C284.443 145.928 266.169 126.656 254.882 149.84C251.282 157.235 250.798 166.184 250.403 174.76C249.89 185.89 249.384 197.145 251.035 208.112C252.479 217.713 255.747 227.174 261.595 234.061C267.845 241.424 276.071 245.345 284.753 246.944L288.064 267.671H290.131C290.279 271.197 290.113 281.207 290.033 285.486C289.104 285.486 288.383 285.486 288.213 285.486L287.609 289.776C286.807 289.805 285.988 289.84 285.132 289.887L285.136 290.008C275.072 290.981 272.383 294.03 271.419 295.942C270.029 297.052 269.109 298.957 269.109 301.127C269.109 304.555 271.4 307.335 274.228 307.335C277.055 307.335 279.346 304.555 279.346 301.127C279.346 299.061 278.505 297.244 277.227 296.116C279.658 295.021 284.046 294.03 291.924 294.016C299.802 294.031 304.189 295.021 306.621 296.116C305.342 297.244 304.502 299.061 304.502 301.127C304.502 304.555 306.793 307.335 309.62 307.335C312.447 307.335 314.738 304.555 314.738 301.127C314.738 298.957 313.817 297.053 312.428 295.942C311.463 294.03 308.775 290.981 298.71 290.008L298.715 289.887C297.911 289.843 297.14 289.809 296.384 289.782L295.93 285.486C295.93 285.486 295.031 285.486 293.852 285.486V267.671H295.781L299.761 247.602C303.58 247.299 307.325 246.69 310.859 245.831C311.006 245.795 311.153 245.763 311.297 245.715C320.034 242.762 328.307 237.632 332.163 227.165C335.278 218.701 335.285 207.724 329.43 200.96Z" fill="#453248"/>
<path d="M382 209.127H4V225.163H382V209.127Z" fill="white"/>
<path d="M19.2198 225.163H4V331H19.2198V225.163Z" fill="white"/>
<path d="M374.39 225.163H337.139V331H374.39V225.163Z" fill="#E9E9E9"/>
<path d="M195.655 225.163H180.435V331H195.655V225.163Z" fill="white"/>
<path d="M382 225.163H366.78V331H382V225.163Z" fill="white"/>
<path d="M213.303 200.491V147.533H147.567V200.491H176.993L175.271 205.819H167.32C166.532 205.819 165.891 206.595 165.891 207.553C165.891 208.51 166.531 209.286 167.32 209.286H193.55C194.339 209.286 194.979 208.511 194.979 207.553C194.979 206.596 194.34 205.819 193.55 205.819H185.6L183.878 200.491H213.303Z" fill="#453248"/>
<path d="M180.435 180.78C182.926 180.78 184.946 178.33 184.946 175.309C184.946 172.287 182.926 169.838 180.435 169.838C177.944 169.838 175.925 172.287 175.925 175.309C175.925 178.33 177.944 180.78 180.435 180.78Z" fill="#685A6B"/>
<path d="M382 199.838V146.879H316.263V199.838H345.689L343.968 205.166H336.017C335.228 205.166 334.588 205.941 334.588 206.899C334.588 207.856 335.227 208.633 336.017 208.633H362.247C363.036 208.633 363.676 207.857 363.676 206.899C363.676 205.942 363.037 205.166 362.247 205.166H354.297L352.575 199.838H382Z" fill="#453248"/>
<path d="M353.643 174.655C353.643 177.677 351.623 180.126 349.132 180.126C346.641 180.126 344.622 177.676 344.622 174.655C344.622 171.634 346.641 169.184 349.132 169.184C351.623 169.183 353.643 171.633 353.643 174.655Z" fill="#685A6B"/>
<path d="M274.082 215.746C273.927 217.796 272.873 219.633 271.521 220.878C270.17 222.124 268.543 222.846 266.908 223.4C262.436 224.915 257.598 225.271 253.177 223.55C248.756 221.83 244.818 217.844 243.262 212.539" fill="#407597"/>
<path d="M256.692 284.818C246.959 283.973 237.952 274.861 234.786 262.659C232.186 252.638 233.235 241.171 237.741 230.371C241.831 220.57 248.089 212.836 253.084 207.194L262.249 219.131C258.069 223.85 252.87 230.231 249.739 237.737C246.869 244.613 246.094 251.912 247.613 257.762C249.137 263.639 253.359 268.176 257.651 268.55L256.692 284.818Z" fill="#407597"/>
<path d="M274.656 314.339C283.463 316.905 287.556 276.137 284.606 274.1C281.657 272.062 262.357 268.623 261.121 270.278C259.885 271.932 257.699 285.191 259.253 286.755C260.807 288.319 269.825 291.38 269.825 291.38C269.825 291.38 267.446 312.237 274.656 314.339Z" fill="#6F6588"/>
<path d="M256.382 265.766C256.382 265.766 264.882 266.562 265.286 267.885C265.689 269.207 261.01 287.463 260.245 288.311C259.481 289.16 254.246 289.11 253.312 286.631C252.379 284.151 256.382 265.766 256.382 265.766Z" fill="#5C8EAF"/>
<path d="M281.241 274.73C281.513 276.039 281.436 277.412 281.355 278.758C280.703 289.708 281.177 292.306 277.965 302.571C277.459 304.186 276.876 305.805 275.921 307.086C274.965 308.367 273.571 309.275 272.154 309.104C271.784 309.061 271.422 308.923 271.087 308.72C271.773 311.672 272.891 313.825 274.655 314.34C283.462 316.906 287.555 276.139 284.606 274.101C283.912 273.622 282.309 273.065 280.255 272.516C280.736 273.114 281.07 273.912 281.241 274.73Z" fill="#453248"/>
<path d="M274.74 279.765C275.626 279.323 276.445 278.595 276.905 277.577C277.411 276.458 277.439 275.089 277.18 273.854C277.009 273.038 276.706 272.271 276.31 271.581C273.661 271.021 270.781 270.53 268.242 270.213C268.101 270.363 267.959 270.515 267.832 270.686C263.689 276.296 270.269 281.991 274.74 279.765Z" fill="#453248"/>
<path d="M269.484 296.122C269.109 296.72 268.718 297.466 268.101 297.501C267.702 297.524 267.326 297.21 267.123 296.794C266.92 296.377 266.868 295.875 266.883 295.392C266.934 293.822 267.678 292.342 268.736 291.436C269.636 290.666 274.125 289.028 273.867 291.66C273.675 293.619 270.402 294.66 269.484 296.122Z" fill="#453248"/>
<path d="M266.73 292.773C266.355 293.37 265.964 294.117 265.346 294.152C264.948 294.175 264.572 293.86 264.369 293.443C264.166 293.027 264.114 292.525 264.13 292.041C264.181 290.472 264.924 288.992 265.982 288.086C266.881 287.315 271.371 285.677 271.114 288.311C270.921 290.269 267.648 291.311 266.73 292.773Z" fill="#453248"/>
<path d="M263.302 290.73C263.103 291.44 262.928 292.298 262.351 292.571C261.98 292.747 261.54 292.593 261.239 292.276C260.937 291.96 260.756 291.504 260.645 291.039C260.281 289.531 260.598 287.841 261.365 286.575C262.016 285.498 265.843 282.215 266.289 284.811C266.621 286.741 263.789 288.991 263.302 290.73Z" fill="#453248"/>
<path d="M251.049 275.608C250.953 275.601 250.858 275.563 250.776 275.489C245.255 270.645 240.181 265.692 238.75 258.385C238.145 255.287 238.247 251.733 239.055 247.824C241.327 236.835 247.8 227.97 253.509 220.149C253.699 219.89 254.026 219.867 254.239 220.094C254.453 220.325 254.473 220.721 254.285 220.98C248.653 228.694 242.27 237.436 240.058 248.13C239.291 251.842 239.19 255.194 239.758 258.095C241.105 264.983 246.025 269.774 251.381 274.472C251.612 274.675 251.665 275.068 251.497 275.348C251.39 275.53 251.22 275.62 251.049 275.608Z" fill="#5C8EAF"/>
<path d="M246.185 313.634C245.315 264.195 248.475 253.042 263.552 208.492L276.176 214.776C261.711 257.519 259.013 267.028 259.829 313.28L246.185 313.634Z" fill="#407597"/>
<path d="M226.645 321.53C226.463 332.513 260.172 328.64 261.182 324.709C262.192 320.779 260.831 297.176 259.234 296.065C257.638 294.953 246.492 295.203 245.564 297.378C244.637 299.553 244.101 310.894 244.101 310.894C244.101 310.894 226.795 312.537 226.645 321.53Z" fill="#6F6588"/>
<path d="M259.954 320.857C258.958 321.46 257.836 321.661 256.735 321.855C247.775 323.425 245.785 324.544 236.831 322.932C235.423 322.678 233.994 322.335 232.757 321.477C231.521 320.619 230.492 319.161 230.326 317.446C230.283 316.998 230.315 316.54 230.408 316.099C228.178 317.545 226.683 319.33 226.645 321.53C226.463 332.514 260.172 328.64 261.182 324.71C261.419 323.786 261.524 321.767 261.528 319.217C261.147 319.913 260.576 320.48 259.954 320.857Z" fill="#453248"/>
<path d="M254.507 314.231C255.053 315.187 255.814 316.001 256.734 316.33C257.743 316.69 258.85 316.43 259.79 315.858C260.41 315.482 260.963 314.958 261.434 314.341C261.318 311.083 261.097 307.565 260.809 304.489C260.658 304.354 260.505 304.219 260.34 304.106C254.938 300.395 251.759 309.411 254.507 314.231Z" fill="#453248"/>
<path d="M240.209 311.506C239.647 311.189 238.963 310.886 238.802 310.161C238.698 309.694 238.871 309.181 239.163 308.852C239.455 308.522 239.848 308.353 240.24 308.267C241.516 307.991 242.867 308.556 243.823 309.616C244.635 310.518 246.916 315.486 244.739 315.744C243.122 315.935 241.583 312.28 240.209 311.506Z" fill="#453248"/>
<path d="M242.317 307.526C241.757 307.209 241.072 306.906 240.911 306.181C240.806 305.713 240.979 305.201 241.272 304.872C241.564 304.542 241.957 304.373 242.349 304.288C243.624 304.012 244.976 304.577 245.931 305.637C246.744 306.538 249.024 311.507 246.848 311.765C245.231 311.955 243.691 308.3 242.317 307.526Z" fill="#453248"/>
<path d="M243.229 303.026C242.614 302.942 241.885 302.918 241.543 302.293C241.322 301.89 241.352 301.337 241.542 300.912C241.732 300.487 242.061 300.175 242.411 299.943C243.547 299.19 244.976 299.205 246.16 299.841C247.167 300.383 250.63 304.215 248.635 305.298C247.152 306.104 244.735 303.231 243.229 303.026Z" fill="#453248"/>
<path d="M254.876 292.931C254.92 292.95 254.968 292.96 255.017 292.961C255.278 292.967 255.494 292.717 255.499 292.401C255.893 269.699 259.514 247.447 266.264 226.269C266.357 225.975 266.236 225.643 265.993 225.529C265.756 225.427 265.477 225.562 265.382 225.857C258.595 247.159 254.951 269.541 254.556 292.378C254.552 292.633 254.686 292.853 254.876 292.931Z" fill="#5C8EAF"/>
<path d="M260.917 292.97C261.008 293.567 261.785 300.119 261.279 300.596C260.771 301.073 245.013 299.938 244.167 298.504C243.321 297.071 243.804 291.045 244.436 290.487C245.067 289.929 260.65 291.205 260.917 292.97Z" fill="#5C8EAF"/>
<path d="M238.172 215.993C238.172 215.993 276.497 220.089 276.504 220.09C276.809 220.123 278.353 206.75 278.445 205.97C279.659 195.555 280.487 185.045 280.622 174.523C280.759 163.914 280.408 152.738 277.484 142.633C275.219 134.802 270.795 127.743 263.477 127.18C259.719 126.891 255.886 127.35 253.513 131.408C252.375 133.353 251.834 135.705 251.313 138.006C250.636 140.993 249.959 143.981 249.282 146.969C246.883 157.56 244.79 168.11 243.487 178.982C242.327 188.65 240.97 198.282 239.472 207.88C239.049 210.586 238.615 213.291 238.172 215.993Z" fill="#016A6F"/>
<path d="M239.279 157.448L244.311 130.715L224.089 124.494L216.862 173.205L234.263 179.148L239.279 157.448Z" fill="white"/>
<path d="M240.18 152.424C240.363 151.687 240.822 151.12 241.678 150.858C242.245 150.685 242.858 150.921 243.323 151.349C243.789 151.778 244.125 152.38 244.404 153.003C245.462 155.361 245.799 158.182 245.336 160.808C245.302 160.997 245.246 161.179 245.168 161.344C245.132 161.67 245.085 161.998 245.014 162.324C244.085 166.658 240.436 169.257 236.863 168.13C233.29 167.003 231.147 162.575 232.076 158.243C233.001 153.928 236.622 151.335 240.18 152.424Z" fill="#FABB8F"/>
<path d="M254.823 190.511C254.396 190.481 254.011 190.416 253.682 190.337C243.609 187.929 237.148 163.999 236.878 162.982L243.772 160.291C246.549 170.754 251.941 180.969 255.083 181.72C255.311 181.775 255.922 181.92 257.024 180.334C259.906 176.189 262.033 164.974 262.711 150.336L269.941 150.83C269.385 162.83 267.653 178.672 262.559 185.998C259.795 189.973 256.831 190.648 254.823 190.511Z" fill="#FABB8F"/>
<path d="M232.487 71.9525C232.487 71.9525 231.102 31.4868 265.211 33.2665C299.321 35.0462 296.107 69.3511 293.887 85.1221C291.667 100.893 232.487 71.9525 232.487 71.9525Z" fill="#453248"/>
<path d="M266.834 128.642C268.185 129.248 268.884 131.235 268.61 132.949C268.337 134.664 267.276 136.072 266.037 136.962C264.799 137.853 263.383 138.302 261.99 138.74C260.245 139.288 258.499 139.837 256.754 140.386C255.736 140.705 254.694 141.028 253.648 140.91C253.481 140.891 253.309 140.858 253.173 140.739C252.897 140.499 252.876 140.017 252.898 139.605C253.065 136.389 254.175 133.257 255.988 130.902C256.499 130.238 257.069 129.631 257.725 129.192C259.372 128.09 261.363 128.166 263.242 128.272" fill="#FABB8F"/>
<path d="M262.266 134.52C262.291 134.525 262.317 134.528 262.343 134.532C264.421 134.866 266.36 133.228 266.715 130.724L269.446 111.457C267.477 111.174 265.508 110.891 263.539 110.608C260.19 110.127 260.652 117.129 260.274 119.998L259.065 129.187C258.73 131.733 260.157 134.19 262.266 134.52Z" fill="#FABB8F"/>
<path d="M290.925 84.1774C291.843 82.0034 294.225 80.9982 296.105 81.8781C297.983 82.7581 299.181 85.3145 298.968 87.7434C298.754 90.1723 297.222 92.3112 295.306 93.0626C293.389 93.813 291.187 93.2175 289.624 91.6751" fill="#FABB8F"/>
<path d="M234.826 77.8892C234.486 75.4811 232.462 73.6575 230.452 73.8135C228.442 73.9695 226.668 75.9744 226.272 78.3692C225.876 80.7641 226.809 83.3622 228.452 84.775C230.095 86.1877 232.344 86.4195 234.216 85.5165" fill="#FABB8F"/>
<path d="M232.333 83.7104C232.169 93.2493 234.226 103.212 239.567 110.218C245.274 117.706 253.962 120.868 262.355 121.469C269.419 121.975 276.951 120.69 282.48 115.33C291.245 106.832 292.248 91.3971 292.541 77.7914C292.705 70.1607 292.775 62.0698 289.576 55.496C286.228 48.6167 279.87 44.7059 273.526 42.5604C267.23 40.4313 260.504 39.6909 254.147 41.5332C237.565 46.3394 232.656 65.0689 232.333 83.7104Z" fill="#FBA278"/>
<path d="M239.474 99.2573C236.928 92.3847 236.426 84.6321 237.298 77.23C237.999 71.278 240.166 62.6817 244.784 59.4541C246.748 58.0809 249.087 57.8052 251.264 57.0362C254.728 55.8124 257.864 53.2549 260.104 49.823C260.328 49.4791 260.569 49.1056 260.915 48.9826C261.211 48.8782 261.525 48.976 261.822 49.0737C263.701 49.6922 265.58 50.3107 267.459 50.9292C270.128 51.8081 272.837 52.7067 275.208 54.4348C276.379 55.2883 277.449 56.3309 278.513 57.3701C282.822 61.5754 286.621 65.8071 287.911 72.5303C289.996 83.3886 288.836 95.4761 283.448 104.507C275.506 117.82 257.855 120.8 247.062 110.85C243.795 107.839 241.156 103.798 239.474 99.2573Z" fill="#FABB8F"/>
<path d="M257.438 92.5802C258.041 92.6209 258.65 92.4879 259.199 92.1562C259.406 92.0309 259.491 91.7244 259.387 91.4718C259.284 91.2191 259.032 91.1158 258.823 91.2433C257.59 91.9881 255.887 91.385 255.179 89.9481C254.471 88.5122 254.839 86.4063 255.967 85.4417C256.139 85.2945 256.325 85.1682 256.512 85.0408C256.954 84.7387 257.411 84.4267 257.732 83.8741C258.081 83.271 258.165 82.536 258.231 81.9461L259.31 72.3798C259.342 72.1008 259.181 71.8437 258.951 71.8053C258.711 71.7734 258.509 71.9624 258.477 72.2414L257.398 81.8077C257.341 82.3141 257.276 82.8876 257.044 83.2875C256.832 83.6522 256.476 83.8961 256.1 84.1531C255.889 84.297 255.678 84.4432 255.483 84.609C253.99 85.8845 253.521 88.5705 254.458 90.4721C255.08 91.7354 256.246 92.4989 257.438 92.5802Z" fill="#453248"/>
<path d="M242.029 76.8608C242.562 76.9179 243.062 77.22 243.477 77.6265C244.396 78.5262 244.933 80.0093 244.759 81.4253C244.585 82.8414 243.659 84.108 242.499 84.3772C238.295 85.3505 238.298 76.4609 242.029 76.8608Z" fill="#453248"/>
<path d="M271.413 79.4052C271.945 79.4623 272.445 79.7644 272.861 80.1709C273.779 81.0706 274.317 82.5537 274.143 83.9697C273.969 85.3858 273.042 86.6524 271.883 86.9216C267.678 87.896 267.68 79.0053 271.413 79.4052Z" fill="#453248"/>
<path d="M294.259 82.5832C294.461 76.1214 293.919 69.4367 292.83 63.1089C292.68 62.2356 292.512 61.2985 291.941 60.7053C291.975 64.0032 292.276 65.0699 292.319 66.5321C292.519 73.453 291.704 79.9983 290.65 86.8028C289.76 92.556 288.216 97.8511 284.724 102.098C282.093 105.298 279.866 105.865 276.157 105.25C275.291 105.106 274.403 104.953 273.637 104.442C272.026 103.365 271.36 101.019 270.194 99.2935C268.916 97.404 267.008 96.2626 265.049 95.6924C263.089 95.1223 261.056 95.0717 259.041 95.0234C257.185 94.9794 255.299 94.9399 253.507 95.5254C249.526 96.8261 246.223 101.117 242.103 100.911C234.627 100.535 234.405 87.7794 234.191 81.2133C234 75.3536 234.254 69.4718 234.965 63.6703C235.176 61.9467 235.884 59.6836 235.594 57.949C234.141 59.7451 233.6 63.6956 233.07 66.2245C232.143 70.6528 231.424 75.147 231.144 79.7028C230.796 85.3681 230.734 91.1048 231.38 96.7503C231.686 99.4308 232.083 102.226 233.15 104.636C235.418 109.757 239.536 114.534 243.65 117.487C249.217 121.481 255.309 123.519 261.773 123.982C275.113 124.936 288.953 116.11 292.452 99.4902C293.614 93.9688 294.081 88.2595 294.259 82.5832Z" fill="#453248"/>
<path d="M261.606 101.466C265.845 102.581 269.661 105.775 268.25 109.369C266.379 114.133 259.118 112.944 256 111.349C254.846 110.758 253.723 109.939 253.019 108.683C249.312 102.072 258.41 100.625 261.606 101.466Z" fill="#FABB8F"/>
<path d="M260.679 109.272C260.861 109.284 261.047 109.276 261.231 109.247C262.221 109.09 263.18 108.348 263.858 107.214C264.373 106.352 264.742 105.282 265.017 103.846C265.049 103.678 265.01 103.502 264.911 103.378C264.814 103.254 264.671 103.199 264.53 103.229C261.863 103.832 259.105 103.552 256.557 102.42C256.336 102.322 256.097 102.46 256.017 102.723C255.938 102.988 256.049 103.28 256.267 103.378C258.752 104.482 261.424 104.818 264.037 104.361C263.812 105.291 263.533 106.018 263.177 106.616C262.634 107.524 261.885 108.115 261.122 108.236C260.304 108.366 259.464 107.888 259.129 107.099C259.023 106.849 258.77 106.75 258.563 106.878C258.357 107.007 258.275 107.314 258.381 107.565C258.802 108.558 259.701 109.205 260.679 109.272Z" fill="#453248"/>
<path d="M261.225 34.4881C261.287 33.8575 261.332 33.1896 261.113 32.6128C260.889 32.0251 260.425 31.6296 259.967 31.2978C258.384 30.1509 256.609 29.4149 254.79 29.0425C241.841 26.3938 231.614 40.7422 228.84 54.6325C228.48 56.4319 228.223 58.2764 228.269 60.1275C228.394 65.093 230.653 69.5576 232.842 73.7563C233.61 70.4101 234.378 67.0649 235.145 63.7187C235.798 60.8734 235.886 58.3302 238.035 56.9175C241.164 54.8599 244.246 52.7693 247.553 51.0588C254.04 47.7038 260.299 43.916 261.225 34.4881Z" fill="#453248"/>
<path d="M257.926 38.0189C257.909 39.3108 258.065 40.6709 258.705 41.7035C259.376 42.7845 260.465 43.3382 261.521 43.771C268.646 46.691 276.67 46.3054 283.257 50.7052C288.784 54.3974 292.713 61.4096 293.509 69.0018C295.791 64.4856 296.173 58.9741 296.495 53.6922C296.693 50.4404 296.884 47.0909 296.043 43.994C295.263 41.1213 293.651 38.689 291.878 36.5622C286.842 30.5179 279.16 25.4195 272.05 24.244C265.423 23.1476 258.034 29.5819 257.926 38.0189Z" fill="#453248"/>
<path d="M247.362 59.865C247.923 60.1045 248.49 60.4308 248.842 61.0119C249.194 61.592 249.257 62.4862 248.838 62.9982C248.552 63.3497 248.122 63.4486 247.72 63.52C245.545 63.9056 243.334 63.9858 241.144 63.7606C238.99 63.5375 238.269 61.0877 240.284 59.9123C242.228 58.7786 245.417 59.0356 247.362 59.865Z" fill="#453248"/>
<path d="M275.815 60.3934C275.224 60.3143 274.596 60.311 274.071 60.6493C273.546 60.9877 273.171 61.76 273.365 62.4422C273.498 62.9091 273.849 63.2244 274.187 63.5001C276.009 64.9909 277.973 66.2245 280.027 67.1715C282.048 68.1031 283.573 66.274 282.177 64.1559C280.83 62.1126 277.864 60.6691 275.815 60.3934Z" fill="#453248"/>
</g>
<defs>
<filter id="filter0_d_101_1564" x="0" y="0" width="386" height="339" filterUnits="userSpaceOnUse" color-interpolation-filters="sRGB">
<feFlood flood-opacity="0" result="BackgroundImageFix"/>
<feColorMatrix in="SourceAlpha" type="matrix" values="0 0 0 0 0 0 0 0 0 0 0 0 0 0 0 0 0 0 127 0" result="hardAlpha"/>
<feOffset dy="4"/>
<feGaussianBlur stdDeviation="2"/>
<feComposite in2="hardAlpha" operator="out"/>
<feColorMatrix type="matrix" values="0 0 0 0 0 0 0 0 0 0 0 0 0 0 0 0 0 0 0.25 0"/>
<feBlend mode="normal" in2="BackgroundImageFix" result="effect1_dropShadow_101_1564"/>
<feBlend mode="normal" in="SourceGraphic" in2="effect1_dropShadow_101_1564" result="shape"/>
</filter>
</defs>
</svg>
